<svg width="22" height="22" viewBox="0 0 22 22" fill="none" xmlns="http://www.w3.org/2000/svg">
<path d="M11 20.2812C5.88225 20.2812 1.71875 16.1174 1.71875 11C1.71875 5.88225 5.88225 1.71875 11 1.71875C16.1178 1.71875 20.2812 5.88225 20.2812 11C20.2812 16.1174 16.1178 20.2812 11 20.2812ZM11 2.75172C6.45116 2.75172 2.75 6.45184 2.75 11C2.75 15.5482 6.45116 19.2483 11 19.2483C15.5488 19.2483 19.25 15.5482 19.25 11C19.25 6.45184 15.5488 2.75172 11 2.75172Z" fill="#0094DF"/>
<path d="M12.1791 15.8201V8.93441H8.73606V9.96703H9.76903V15.8201H8.73606V16.8527H13.212V15.8201H12.1791Z" fill="#0094DF"/>
<path d="M10.9935 8.03687C11.7728 8.03687 12.4046 7.40511 12.4046 6.62578C12.4046 5.84646 11.7728 5.21469 10.9935 5.21469C10.2141 5.21469 9.58237 5.84646 9.58237 6.62578C9.58237 7.40511 10.2141 8.03687 10.9935 8.03687Z" fill="#0094DF"/>
</svg>
