<svg width="24" height="24" viewBox="0 0 24 24" fill="none" xmlns="http://www.w3.org/2000/svg">
<path d="M21.024 19.1681L16.6466 14.7904C17.4971 13.5743 18 12.0971 18 10.5C18 6.35775 14.6423 3 10.5 3C6.35775 3 3 6.35775 3 10.5C3 14.6423 6.35775 18 10.5 18C12.0968 18 13.5743 17.4971 14.7904 16.6466L19.1681 21.0244L21.024 19.1681ZM5.625 10.5C5.625 7.812 7.81163 5.625 10.5 5.625C13.188 5.625 15.375 7.812 15.375 10.5C15.375 13.188 13.188 15.375 10.5 15.375C7.81163 15.375 5.625 13.188 5.625 10.5Z" fill="#6B7886"/>
</svg>
