<svg width="142" height="40" viewBox="0 0 142 40" fill="none" xmlns="http://www.w3.org/2000/svg">
<rect x="0.5" y="0.5" width="141" height="39" rx="4.5" fill="white" stroke="#E9EBED"/>
<path d="M31.7072 19.7289C31.6767 16.3439 34.4846 14.697 34.613 14.6203C33.0228 12.3066 30.558 11.9904 29.6919 11.9652C27.6218 11.7478 25.6137 13.2014 24.5592 13.2014C23.4836 13.2014 21.8598 11.9862 20.1096 12.0219C17.8574 12.0566 15.7505 13.3579 14.5949 15.3786C12.2101 19.4989 13.9887 25.5538 16.2735 28.8843C17.4164 30.5165 18.752 32.3366 20.5 32.2725C22.2102 32.2032 22.849 31.1855 24.9128 31.1855C26.9577 31.1855 27.5576 32.2725 29.3404 32.2316C31.1758 32.2032 32.3313 30.5931 33.4343 28.9473C34.7551 27.0789 35.2855 25.2367 35.3065 25.1421C35.2644 25.1274 31.743 23.7852 31.7072 19.7289ZM28.3395 9.77431C29.2593 8.62634 29.8887 7.06456 29.714 5.47968C28.3827 5.53849 26.7177 6.39868 25.759 7.52144C24.9107 8.51081 24.153 10.1325 24.3487 11.6575C25.8442 11.7688 27.3797 10.9044 28.3395 9.77431Z" fill="black"/>
<path d="M56.4782 31.942H54.0882L52.779 27.8364H48.2283L46.9812 31.942H44.6543L49.1639 17.9648H51.9486L56.4782 31.942ZM52.3843 26.114L51.2003 22.4642C51.0751 22.0914 50.8394 21.2133 50.4942 19.8311H50.4521C50.3132 20.4256 50.0911 21.3036 49.7869 22.4642L48.623 26.114H52.3843ZM68.0527 26.7788C68.0527 28.4929 67.5865 29.8477 66.653 30.8424C65.8174 31.7278 64.7787 32.1699 63.54 32.1699C62.2023 32.1699 61.2404 31.6941 60.6563 30.7405V36.0287H58.4126V25.1761C58.4126 24.0995 58.3842 22.9957 58.3294 21.8634H60.3027L60.428 23.4609H60.4701C61.2183 22.2573 62.3539 21.6555 63.8778 21.6555C65.0691 21.6555 66.0637 22.125 66.8593 23.065C67.6539 24.0071 68.0527 25.2443 68.0527 26.7788ZM65.7669 26.8607C65.7669 25.8797 65.5459 25.071 65.1018 24.4335C64.6166 23.7708 63.9651 23.4389 63.1485 23.4389C62.5949 23.4389 62.0918 23.6237 61.6425 23.9882C61.192 24.3558 60.8973 24.8358 60.7595 25.4302C60.6979 25.6525 60.663 25.8813 60.6553 26.1119V27.7934C60.6553 28.5254 60.8805 29.144 61.3309 29.6503C61.7814 30.1544 62.3665 30.4075 63.0864 30.4075C63.9315 30.4075 64.5892 30.0809 65.0597 29.4329C65.5311 28.7827 65.7669 27.9257 65.7669 26.8607ZM79.6683 26.7788C79.6683 28.4929 79.2021 29.8477 78.2686 30.8424C77.4319 31.7278 76.3942 32.1699 75.1545 32.1699C73.8168 32.1699 72.8549 31.6941 72.2708 30.7405V36.0287H70.0271V25.1761C70.0271 24.0995 69.9987 22.9957 69.9439 21.8634H71.9172L72.0425 23.4609H72.0846C72.8318 22.2573 73.9673 21.6555 75.4923 21.6555C76.6826 21.6555 77.6771 22.125 78.4749 23.065C79.2684 24.0071 79.6683 25.2443 79.6683 26.7788ZM77.3814 26.8607C77.3814 25.8797 77.1593 25.071 76.7152 24.4335C76.23 23.7708 75.5807 23.4389 74.764 23.4389C74.2105 23.4389 73.7074 23.6237 73.2559 23.9882C72.8055 24.3558 72.5118 24.8358 72.374 25.4302C72.3056 25.7075 72.2687 25.9333 72.2687 26.1119V27.7934C72.2687 28.5254 72.495 29.144 72.9433 29.6503C73.3938 30.1534 73.9789 30.4075 74.7009 30.4075C75.547 30.4075 76.2048 30.0809 76.6742 29.4329C77.1457 28.7827 77.3814 27.9257 77.3814 26.8607ZM92.6552 28.0213C92.6552 29.2113 92.2384 30.1786 91.4101 30.9253C90.4988 31.7404 89.2264 32.1489 87.5951 32.1489C86.0881 32.1489 84.8799 31.859 83.9685 31.2782L84.4873 29.4119C85.4713 29.9937 86.5522 30.2836 87.7288 30.2836C88.5749 30.2836 89.2327 30.0925 89.7021 29.7133C90.1725 29.3331 90.4103 28.8248 90.4103 28.1904C90.4103 27.6222 90.2135 27.1464 89.8273 26.7588C89.439 26.3723 88.797 26.0121 87.8951 25.6812C85.4429 24.7685 84.2158 23.4336 84.2158 21.6775C84.2158 20.5306 84.6494 19.5917 85.5145 18.8575C86.3796 18.1244 87.5267 17.7579 88.9538 17.7579C90.2283 17.7579 91.2902 17.9795 92.1332 18.4216L91.5701 20.247C90.7766 19.8185 89.881 19.6043 88.8791 19.6043C88.0877 19.6043 87.4667 19.7986 87.0226 20.1851C86.649 20.5306 86.4596 20.9518 86.4596 21.4517C86.4596 22.0031 86.6753 22.4611 87.1047 22.8203C87.4772 23.1511 88.1571 23.5113 89.1401 23.8979C90.3461 24.3831 91.2323 24.9481 91.7995 25.5972C92.371 26.2463 92.6552 27.0561 92.6552 28.0213ZM100.093 23.5439H97.6194V28.4372C97.6194 29.6818 98.0551 30.3025 98.9286 30.3025C99.3296 30.3025 99.6622 30.2689 99.9253 30.1985L99.9874 31.899C99.5454 32.0638 98.9634 32.1468 98.2425 32.1468C97.3563 32.1468 96.6638 31.8769 96.1639 31.337C95.6661 30.7972 95.4157 29.8929 95.4157 28.6199V23.5397H93.9423V21.8592H95.4157V20.0139L97.6194 19.3501V21.8592H100.093V23.5439ZM111.229 26.8198C111.229 28.3689 110.785 29.6408 109.899 30.6355C108.972 31.6595 107.738 32.1699 106.201 32.1699C104.717 32.1699 103.537 31.6794 102.657 30.6995C101.778 29.7175 101.338 28.4803 101.338 26.9878C101.338 25.426 101.792 24.1468 102.698 23.1521C103.607 22.1565 104.83 21.6586 106.367 21.6586C107.849 21.6586 109.039 22.1502 109.94 23.1311C110.801 24.0827 111.229 25.3115 111.229 26.8198ZM108.903 26.8712C108.903 25.948 108.703 25.1561 108.303 24.4934C107.832 23.693 107.159 23.2929 106.286 23.2929C105.387 23.2929 104.698 23.693 104.229 24.4934C103.827 25.1561 103.627 25.9617 103.627 26.9132C103.627 27.8375 103.827 28.6315 104.229 29.2921C104.714 30.0925 105.39 30.4926 106.267 30.4926C107.125 30.4926 107.797 30.0841 108.284 29.2722C108.696 28.5937 108.903 27.7965 108.903 26.8712ZM118.526 23.8327C118.292 23.7907 118.056 23.7699 117.819 23.7708C117.029 23.7708 116.419 24.0669 115.989 24.6635C115.617 25.1887 115.43 25.8524 115.43 26.6538V31.942H113.186V25.0374C113.188 23.9794 113.166 22.9215 113.121 21.8645H115.075L115.157 23.7928H115.219C115.457 23.1301 115.829 22.5955 116.341 22.1953C116.809 21.8457 117.378 21.6563 117.963 21.6555C118.17 21.6555 118.357 21.6702 118.524 21.6964L118.526 23.8327ZM128.561 26.4259C128.566 26.7663 128.539 27.1064 128.478 27.4415H121.747C121.772 28.4372 122.099 29.1997 122.724 29.7249C123.291 30.1933 124.025 30.4285 124.926 30.4285C125.922 30.4285 126.831 30.271 127.649 29.9528L128.001 31.5061C127.045 31.9221 125.917 32.129 124.615 32.129C123.049 32.129 121.82 31.6689 120.925 30.751C120.033 29.832 119.586 28.5968 119.586 27.0498C119.586 25.5311 120.001 24.2655 120.834 23.2561C121.705 22.1785 122.883 21.6397 124.365 21.6397C125.82 21.6397 126.922 22.1785 127.67 23.2561C128.263 24.11 128.561 25.1687 128.561 26.4259ZM126.421 25.8451C126.437 25.1803 126.289 24.6078 125.985 24.1237C125.597 23.4998 124.999 23.1889 124.198 23.1889C123.465 23.1889 122.867 23.4924 122.412 24.1016C122.039 24.5858 121.817 25.1677 121.748 25.843L126.421 25.8451Z" fill="black"/>
<path d="M47.9292 10.1291H48.8037C49.687 10.1291 50.1924 10.5334 50.1924 11.1794C50.1924 11.8166 49.6562 12.2692 48.8345 12.2692C48.0127 12.2692 47.4546 11.8649 47.3975 11.2453H46.4526C46.5098 12.3615 47.4546 13.1042 48.8345 13.1042C50.1748 13.1042 51.2031 12.3 51.2031 11.2277C51.2031 10.3356 50.6143 9.76874 49.7925 9.68524V9.61053C50.5 9.44794 50.9834 8.85468 50.9834 8.16034C50.9834 7.15839 50.1045 6.45526 48.8564 6.45526C47.5337 6.45526 46.6812 7.15839 46.6152 8.29218H47.5469C47.604 7.65936 48.0874 7.27704 48.8257 7.27704C49.5728 7.27704 50.0122 7.66815 50.0122 8.26581C50.0122 8.87665 49.5288 9.30731 48.7773 9.30731H47.9292V10.1291Z" fill="black"/>
<path d="M53.9188 13.0295C54.5472 13.0295 55.0701 12.757 55.3558 12.2736H55.4305V12.9504H56.3402V9.68524C56.3402 8.68329 55.6634 8.08563 54.4637 8.08563C53.3782 8.08563 52.6048 8.60858 52.5081 9.41278H53.4222C53.5277 9.06561 53.8924 8.86786 54.4197 8.86786C55.0657 8.86786 55.3997 9.16229 55.3997 9.68524V10.1027L54.1033 10.1818C52.9652 10.2521 52.3236 10.7487 52.3236 11.6057C52.3236 12.4758 52.9959 13.0295 53.9188 13.0295ZM54.1605 12.2692C53.6463 12.2692 53.2728 12.0099 53.2728 11.5661C53.2728 11.131 53.5716 10.8981 54.2308 10.8542L55.3997 10.7751V11.1882C55.3997 11.8034 54.8724 12.2692 54.1605 12.2692Z" fill="black"/>
<path d="M61.0993 8.93378V8.17792H57.9484V12.9504H58.8932V8.93378H61.0993Z" fill="black"/>
<path d="M64.8872 8.09442C64.2368 8.09442 63.6743 8.42401 63.3842 8.96893H63.3139V8.17792H62.4043V14.5412H63.3491V12.2297H63.4238C63.6743 12.735 64.2148 13.0295 64.896 13.0295C66.1045 13.0295 66.8735 12.0715 66.8735 10.5641C66.8735 9.04803 66.1045 8.09442 64.8872 8.09442ZM64.6191 12.2209C63.8281 12.2209 63.3315 11.5837 63.3315 10.5641C63.3315 9.54022 63.8281 8.90302 64.6235 8.90302C65.4233 8.90302 65.9023 9.52704 65.9023 10.5641C65.9023 11.6013 65.4233 12.2209 64.6191 12.2209Z" fill="black"/>
<path d="M68.5696 14.6818C69.5452 14.6818 69.9978 14.3171 70.4065 13.1701L72.1907 8.17792H71.1887L69.9934 12.0012H69.9187L68.719 8.17792H67.6907L69.4221 12.9636L69.3518 13.2097C69.1892 13.715 68.9344 13.904 68.4861 13.904C68.3982 13.904 68.2532 13.8996 68.1785 13.8864V14.6599C68.2664 14.673 68.4905 14.6818 68.5696 14.6818Z" fill="black"/>
<path d="M74.9591 13.0383C76.1368 13.0383 76.9103 12.4274 76.9103 11.5397C76.9103 11.0036 76.5851 10.6213 75.9347 10.4894V10.4147C76.4356 10.3005 76.7477 9.89178 76.7477 9.3952C76.7477 8.60419 76.0885 8.08563 74.9854 8.08563C73.8824 8.08563 73.2013 8.63055 73.1002 9.45233H74.0143C74.0714 9.08319 74.4361 8.84589 74.9635 8.84589C75.5392 8.84589 75.8204 9.12274 75.8204 9.49188C75.8204 9.93573 75.526 10.1686 74.9459 10.1686H74.2384V10.863H74.9503C75.6139 10.863 75.9698 11.0827 75.9698 11.5529C75.9698 11.9836 75.5919 12.278 74.9503 12.278C74.3922 12.278 74.0055 12.0539 73.9132 11.654H72.9728C73.0606 12.5373 73.8824 13.0383 74.9591 13.0383Z" fill="black"/>
<path d="M79.2568 12.9504L81.4408 9.58856H81.5155V12.9504H82.4516V8.17792H81.5155L79.3315 11.5266H79.2568V8.17792H78.3207V12.9504H79.2568Z" fill="black"/>
<path d="M87.6589 8.17792H83.6995V8.93378H85.2068V12.9504H86.1516V8.93378H87.6589V8.17792Z" fill="black"/>
<path d="M88.9024 12.9504H90.792C91.8995 12.9504 92.607 12.3132 92.607 11.3024C92.607 10.2961 91.8995 9.65887 90.792 9.65887H89.8472V8.17792H88.9024V12.9504ZM90.7217 10.4103C91.293 10.4103 91.6666 10.7619 91.6666 11.3024C91.6666 11.8386 91.2974 12.1945 90.7217 12.1945H89.8472V10.4103H90.7217Z" fill="black"/>
<path d="M98.7546 12.9504C99.8049 12.9504 100.433 12.4055 100.433 11.5837C100.433 11.0124 100.029 10.5817 99.4094 10.507V10.4323C99.8796 10.3444 100.218 9.90057 100.218 9.40839C100.218 8.66132 99.6687 8.17792 98.7326 8.17792H96.5749V12.9504H98.7546ZM97.5109 8.87665H98.5524C99.0534 8.87665 99.2907 9.13593 99.2907 9.52264C99.2907 9.94891 99.0183 10.1774 98.447 10.1774H97.5109V8.87665ZM97.5109 10.863H98.5217C99.1545 10.863 99.4797 11.0871 99.4797 11.5485C99.4797 11.9924 99.1896 12.2473 98.6403 12.2473H97.5109V10.863Z" fill="black"/>
</svg>
