<svg width="142" height="40" viewBox="0 0 142 40" fill="none" xmlns="http://www.w3.org/2000/svg">
<rect x="0.5" y="0.5" width="141" height="39" rx="4.5" fill="white" stroke="#E9EBED"/>
<path d="M67.8034 21.7505C65.4034 21.7505 63.5034 23.5505 63.5034 26.0505C63.5034 28.4505 65.4034 30.3505 67.8034 30.3505C70.2034 30.3505 72.1034 28.5505 72.1034 26.0505C72.1034 23.4505 70.2034 21.7505 67.8034 21.7505ZM67.8034 28.5505C66.5034 28.5505 65.4034 27.4505 65.4034 25.9505C65.4034 24.4505 66.5034 23.3505 67.8034 23.3505C69.1034 23.3505 70.2034 24.3505 70.2034 25.9505C70.2034 27.4505 69.1034 28.5505 67.8034 28.5505ZM58.5034 21.7505C56.1034 21.7505 54.2034 23.5505 54.2034 26.0505C54.2034 28.4505 56.1034 30.3505 58.5034 30.3505C60.9034 30.3505 62.8034 28.5505 62.8034 26.0505C62.8034 23.4505 60.9034 21.7505 58.5034 21.7505ZM58.5034 28.5505C57.2034 28.5505 56.1034 27.4505 56.1034 25.9505C56.1034 24.4505 57.2034 23.3505 58.5034 23.3505C59.8034 23.3505 60.9034 24.3505 60.9034 25.9505C60.9034 27.4505 59.8034 28.5505 58.5034 28.5505ZM47.4034 23.0505V24.8505H51.7034C51.6034 25.8505 51.2034 26.6505 50.7034 27.1505C50.1034 27.7505 49.1034 28.4505 47.4034 28.4505C44.7034 28.4505 42.7034 26.3505 42.7034 23.6505C42.7034 20.9505 44.8034 18.8505 47.4034 18.8505C48.8034 18.8505 49.9034 19.4505 50.7034 20.1505L52.0034 18.8505C50.9034 17.8505 49.5034 17.0505 47.5034 17.0505C43.9034 17.0505 40.8034 20.0505 40.8034 23.6505C40.8034 27.2505 43.9034 30.2505 47.5034 30.2505C49.5034 30.2505 50.9034 29.6505 52.1034 28.3505C53.3034 27.1505 53.7034 25.4505 53.7034 24.1505C53.7034 23.7505 53.7034 23.3505 53.6034 23.0505H47.4034ZM92.8034 24.4505C92.4034 23.4505 91.4034 21.7505 89.2034 21.7505C87.0034 21.7505 85.2034 23.4505 85.2034 26.0505C85.2034 28.4505 87.0034 30.3505 89.4034 30.3505C91.3034 30.3505 92.5034 29.1505 92.9034 28.4505L91.5034 27.4505C91.0034 28.1505 90.4034 28.6505 89.4034 28.6505C88.4034 28.6505 87.8034 28.2505 87.3034 27.3505L93.0034 24.9505L92.8034 24.4505ZM87.0034 25.8505C87.0034 24.2505 88.3034 23.3505 89.2034 23.3505C89.9034 23.3505 90.6034 23.7505 90.8034 24.2505L87.0034 25.8505ZM82.3034 29.9505H84.2034V17.4505H82.3034V29.9505ZM79.3034 22.6505C78.8034 22.1505 78.0034 21.6505 77.0034 21.6505C74.9034 21.6505 72.9034 23.5505 72.9034 25.9505C72.9034 28.3505 74.8034 30.1505 77.0034 30.1505C78.0034 30.1505 78.8034 29.6505 79.2034 29.1505H79.3034V29.7505C79.3034 31.3505 78.4034 32.2505 77.0034 32.2505C75.9034 32.2505 75.1034 31.4505 74.9034 30.7505L73.3034 31.4505C73.8034 32.5505 75.0034 33.9505 77.1034 33.9505C79.3034 33.9505 81.1034 32.6505 81.1034 29.5505V21.9505H79.3034V22.6505ZM77.1034 28.5505C75.8034 28.5505 74.7034 27.4505 74.7034 25.9505C74.7034 24.4505 75.8034 23.3505 77.1034 23.3505C78.4034 23.3505 79.4034 24.4505 79.4034 25.9505C79.4034 27.4505 78.4034 28.5505 77.1034 28.5505ZM101.503 17.4505H97.0034V29.9505H98.9034V25.2505H101.503C103.603 25.2505 105.603 23.7505 105.603 21.3505C105.603 18.9505 103.603 17.4505 101.503 17.4505ZM101.603 23.4505H98.9034V19.1505H101.603C103.003 19.1505 103.803 20.3505 103.803 21.2505C103.703 22.3505 102.903 23.4505 101.603 23.4505ZM113.103 21.6505C111.703 21.6505 110.303 22.2505 109.803 23.5505L111.503 24.2505C111.903 23.5505 112.503 23.3505 113.203 23.3505C114.203 23.3505 115.103 23.9505 115.203 24.9505V25.0505C114.903 24.8505 114.103 24.5505 113.303 24.5505C111.503 24.5505 109.703 25.5505 109.703 27.3505C109.703 29.0505 111.203 30.1505 112.803 30.1505C114.103 30.1505 114.703 29.5505 115.203 28.9505H115.303V29.9505H117.103V25.1505C116.903 22.9505 115.203 21.6505 113.103 21.6505ZM112.903 28.5505C112.303 28.5505 111.403 28.2505 111.403 27.4505C111.403 26.4505 112.503 26.1505 113.403 26.1505C114.203 26.1505 114.603 26.3505 115.103 26.5505C114.903 27.7505 113.903 28.5505 112.903 28.5505ZM123.403 21.9505L121.303 27.3505H121.203L119.003 21.9505H117.003L120.303 29.5505L118.403 33.7505H120.303L125.403 21.9505H123.403ZM106.603 29.9505H108.503V17.4505H106.603V29.9505Z" fill="black"/>
<path d="M10.4004 7.45038C10.1004 7.75038 9.90039 8.25038 9.90039 8.85038V30.9504C9.90039 31.5504 10.1004 32.0504 10.4004 32.3504L10.5004 32.4504L22.9004 20.0504V19.9504V19.8504L10.4004 7.45038Z" fill="url(#paint0_linear_523_280)"/>
<path d="M26.9999 24.2502L22.8999 20.1502V19.9502V19.8502L26.9999 15.7502L27.0999 15.8502L31.9999 18.6502C33.3999 19.4502 33.3999 20.7502 31.9999 21.5502L26.9999 24.2502Z" fill="url(#paint1_linear_523_280)"/>
<path d="M27.1004 24.1504L22.9004 19.9504L10.4004 32.4504C10.9004 32.9504 11.6004 32.9504 12.5004 32.5504L27.1004 24.1504Z" fill="url(#paint2_linear_523_280)"/>
<path d="M27.1004 15.7505L12.5004 7.45049C11.6004 6.95049 10.9004 7.05049 10.4004 7.55049L22.9004 19.9505L27.1004 15.7505Z" fill="url(#paint3_linear_523_280)"/>
<path opacity="0.2" d="M27.0004 24.05L12.5004 32.25C11.7004 32.75 11.0004 32.65 10.5004 32.25L10.4004 32.35L10.5004 32.45C11.0004 32.85 11.7004 32.95 12.5004 32.45L27.0004 24.05Z" fill="black"/>
<path opacity="0.12" d="M10.4005 32.2493C10.1005 31.9493 10.0005 31.4493 10.0005 30.8493V30.9493C10.0005 31.5493 10.2005 32.0493 10.5005 32.3493V32.2493H10.4005Z" fill="black"/>
<path opacity="0.12" d="M32 21.2504L27 24.0504L27.1 24.1504L32 21.3504C32.7 20.9504 33 20.4504 33 19.9504C33 20.4504 32.6 20.8504 32 21.2504Z" fill="black"/>
<path opacity="0.25" d="M12.5 7.55026L32 18.6503C32.6 19.0503 33 19.4503 33 19.9503C33 19.4503 32.7 18.9503 32 18.5503L12.5 7.45026C11.1 6.65026 10 7.35026 10 8.95026V9.05026C10 7.45026 11.1 6.75026 12.5 7.55026Z" fill="white"/>
<path d="M46.7773 14.3449H46.0312V12.9504H41.9492V14.3488H41.1992L41.1953 12.3371H41.6602C41.9049 12.0611 42.099 11.6913 42.2422 11.2277C42.388 10.7616 42.4792 10.2512 42.5156 9.69647L42.6406 7.26288H46.043V12.3371H46.7852L46.7773 14.3449ZM42.5156 12.3371H45.2891V7.88007H43.3633L43.2812 9.55194C43.2474 10.2056 43.1602 10.7629 43.0195 11.2238C42.8815 11.6848 42.7135 12.0558 42.5156 12.3371Z" fill="black"/>
<path d="M52.357 10.2902C52.357 10.8475 52.2633 11.3345 52.0758 11.7512C51.8883 12.1652 51.6227 12.4816 51.2789 12.7004C50.9352 12.9191 50.5341 13.0285 50.0758 13.0285C49.6279 13.0285 49.2307 12.9191 48.8844 12.7004C48.538 12.479 48.2685 12.1652 48.0758 11.759C47.8857 11.3501 47.788 10.8775 47.7828 10.341V9.93085C47.7828 9.38397 47.8779 8.9009 48.068 8.48163C48.2581 8.06236 48.5263 7.74205 48.8727 7.52069C49.2216 7.29673 49.6201 7.18475 50.068 7.18475C50.5237 7.18475 50.9247 7.29543 51.2711 7.51678C51.6201 7.73553 51.8883 8.05455 52.0758 8.47382C52.2633 8.89048 52.357 9.37616 52.357 9.93085V10.2902ZM51.6109 9.92303C51.6109 9.24856 51.4755 8.73163 51.2047 8.37225C50.9339 8.01027 50.5549 7.82928 50.068 7.82928C49.594 7.82928 49.2203 8.01027 48.9469 8.37225C48.676 8.73163 48.5367 9.23163 48.5289 9.87225V10.2902C48.5289 10.9439 48.6656 11.4582 48.9391 11.8332C49.2151 12.2056 49.594 12.3918 50.0758 12.3918C50.5602 12.3918 50.9352 12.216 51.2008 11.8644C51.4664 11.5103 51.6031 11.0038 51.6109 10.3449V9.92303Z" fill="black"/>
<path d="M58.0656 11.1457C57.9953 11.7473 57.7727 12.2121 57.3977 12.5402C57.0253 12.8657 56.5292 13.0285 55.9094 13.0285C55.2375 13.0285 54.6984 12.7876 54.2922 12.3058C53.8885 11.8241 53.6867 11.1795 53.6867 10.3723V9.82538C53.6867 9.29673 53.7805 8.83189 53.968 8.43085C54.1581 8.02981 54.4263 7.72251 54.7727 7.50897C55.119 7.29283 55.5201 7.18475 55.9758 7.18475C56.5799 7.18475 57.0643 7.35402 57.4289 7.69257C57.7935 8.0285 58.0057 8.49465 58.0656 9.091H57.3117C57.2466 8.63788 57.1047 8.30975 56.8859 8.10663C56.6698 7.9035 56.3664 7.80194 55.9758 7.80194C55.4966 7.80194 55.1203 7.97902 54.8469 8.33319C54.576 8.68736 54.4406 9.19126 54.4406 9.84491V10.3957C54.4406 11.0129 54.5695 11.5038 54.8273 11.8683C55.0852 12.2329 55.4458 12.4152 55.9094 12.4152C56.326 12.4152 56.6451 12.3215 56.8664 12.134C57.0904 11.9439 57.2388 11.6144 57.3117 11.1457H58.0656Z" fill="black"/>
<path d="M63.3055 7.88007H61.4773V12.9504H60.7313V7.88007H58.907V7.26288H63.3055V7.88007Z" fill="black"/>
<path d="M66.5023 10.5637L67.8109 7.26288H68.682L66.6703 12.0012C66.5349 12.3032 66.4086 12.5181 66.2914 12.6457C66.1742 12.7707 66.0362 12.867 65.8773 12.9348C65.7211 12.9999 65.5245 13.0324 65.2875 13.0324C65.0818 13.0324 64.9503 13.0207 64.893 12.9973L64.9164 12.4035L65.2719 12.4191C65.5453 12.4191 65.7484 12.2876 65.8813 12.0246L65.9789 11.8215L66.1273 11.4738L64.1898 7.26288H65.0297L66.5023 10.5637Z" fill="black"/>
<path d="M74.3242 12.9504H73.5703V7.88007H70.7656V12.9504H70.0156V7.26288H74.3242V12.9504Z" fill="black"/>
<path d="M80.4625 12.9504H79.7086V10.3215H76.8414V12.9504H76.0914V7.26288H76.8414V9.70819H79.7086V7.26288H80.4625V12.9504Z" fill="black"/>
<path d="M86.5695 10.2902C86.5695 10.8475 86.4758 11.3345 86.2883 11.7512C86.1008 12.1652 85.8352 12.4816 85.4914 12.7004C85.1477 12.9191 84.7466 13.0285 84.2883 13.0285C83.8404 13.0285 83.4432 12.9191 83.0969 12.7004C82.7505 12.479 82.481 12.1652 82.2883 11.759C82.0982 11.3501 82.0005 10.8775 81.9953 10.341V9.93085C81.9953 9.38397 82.0904 8.9009 82.2805 8.48163C82.4706 8.06236 82.7388 7.74205 83.0852 7.52069C83.4341 7.29673 83.8326 7.18475 84.2805 7.18475C84.7362 7.18475 85.1372 7.29543 85.4836 7.51678C85.8326 7.73553 86.1008 8.05455 86.2883 8.47382C86.4758 8.89048 86.5695 9.37616 86.5695 9.93085V10.2902ZM85.8234 9.92303C85.8234 9.24856 85.688 8.73163 85.4172 8.37225C85.1464 8.01027 84.7674 7.82928 84.2805 7.82928C83.8065 7.82928 83.4328 8.01027 83.1594 8.37225C82.8885 8.73163 82.7492 9.23163 82.7414 9.87225V10.2902C82.7414 10.9439 82.8781 11.4582 83.1516 11.8332C83.4276 12.2056 83.8065 12.3918 84.2883 12.3918C84.7727 12.3918 85.1477 12.216 85.4133 11.8644C85.6789 11.5103 85.8156 11.0038 85.8234 10.3449V9.92303Z" fill="black"/>
<path d="M90.4789 12.9504V7.26288H92.3383C92.9555 7.26288 93.419 7.39048 93.7289 7.64569C94.0414 7.9009 94.1977 8.2785 94.1977 8.7785C94.1977 9.04413 94.1221 9.27981 93.9711 9.48553C93.82 9.68866 93.6143 9.84621 93.3539 9.95819C93.6612 10.0441 93.9034 10.2082 94.0805 10.4504C94.2602 10.69 94.35 10.9764 94.35 11.3098C94.35 11.8202 94.1846 12.2212 93.8539 12.5129C93.5232 12.8045 93.0557 12.9504 92.4516 12.9504H90.4789ZM91.2289 10.2902V12.3371H92.4672C92.8161 12.3371 93.0909 12.2473 93.2914 12.0676C93.4945 11.8853 93.5961 11.6353 93.5961 11.3176C93.5961 10.6327 93.2237 10.2902 92.4789 10.2902H91.2289ZM91.2289 9.68866H92.3617C92.6898 9.68866 92.9516 9.60663 93.1469 9.44257C93.3448 9.2785 93.4437 9.05585 93.4437 8.7746C93.4437 8.4621 93.3526 8.23553 93.1703 8.09491C92.988 7.95168 92.7107 7.88007 92.3383 7.88007H91.2289V9.68866Z" fill="black"/>
<defs>
<linearGradient id="paint0_linear_523_280" x1="21.8001" y1="8.66008" x2="5.01769" y2="25.4425" gradientUnits="userSpaceOnUse">
<stop stop-color="#00A0FF"/>
<stop offset="0.00657445" stop-color="#00A1FF"/>
<stop offset="0.2601" stop-color="#00BEFF"/>
<stop offset="0.5122" stop-color="#00D2FF"/>
<stop offset="0.7604" stop-color="#00DFFF"/>
<stop offset="1" stop-color="#00E3FF"/>
</linearGradient>
<linearGradient id="paint1_linear_523_280" x1="33.8343" y1="19.9516" x2="9.6374" y2="19.9516" gradientUnits="userSpaceOnUse">
<stop stop-color="#FFE000"/>
<stop offset="0.4087" stop-color="#FFBD00"/>
<stop offset="0.7754" stop-color="#FFA500"/>
<stop offset="1" stop-color="#FF9C00"/>
</linearGradient>
<linearGradient id="paint2_linear_523_280" x1="24.8274" y1="22.2465" x2="2.06909" y2="45.0048" gradientUnits="userSpaceOnUse">
<stop stop-color="#FF3A44"/>
<stop offset="1" stop-color="#C31162"/>
</linearGradient>
<linearGradient id="paint3_linear_523_280" x1="7.29769" y1="0.126691" x2="17.4603" y2="10.2892" gradientUnits="userSpaceOnUse">
<stop stop-color="#32A071"/>
<stop offset="0.0685" stop-color="#2DA771"/>
<stop offset="0.4762" stop-color="#15CF74"/>
<stop offset="0.8009" stop-color="#06E775"/>
<stop offset="1" stop-color="#00F076"/>
</linearGradient>
</defs>
</svg>
