<svg width="22" height="22" viewBox="0 0 22 22" fill="none" xmlns="http://www.w3.org/2000/svg">
<rect x="16.5" y="10.0833" width="5.5" height="11.9167" fill="#0094DF"/>
<path fill-rule="evenodd" clip-rule="evenodd" d="M0 0V22H4.58333V18.3333H10.0833V22H14.6667V0H0ZM4.58333 15.5833H2.75V13.75H4.58333V15.5833ZM4.58333 11.9167H2.75V10.0833H4.58333V11.9167ZM4.58333 8.25H2.75V6.41667H4.58333V8.25ZM4.58333 4.58333H2.75V2.75H4.58333V4.58333ZM8.25 15.5833H6.41667V13.75H8.25V15.5833ZM8.25 11.9167H6.41667V10.0833H8.25V11.9167ZM8.25 8.25H6.41667V6.41667H8.25V8.25ZM8.25 4.58333H6.41667V2.75H8.25V4.58333ZM11.9167 15.5833H10.0833V13.75H11.9167V15.5833ZM11.9167 11.9167H10.0833V10.0833H11.9167V11.9167ZM11.9167 8.25H10.0833V6.41667H11.9167V8.25ZM11.9167 4.58333H10.0833V2.75H11.9167V4.58333Z" fill="#0094DF"/>
</svg>
