<svg width="23" height="22" viewBox="0 0 23 22" fill="none" xmlns="http://www.w3.org/2000/svg">
<path fill-rule="evenodd" clip-rule="evenodd" d="M22.1308 19.3578L16.8898 14.1164C17.9081 12.6603 18.5102 10.8918 18.5102 8.97959C18.5102 4.02016 14.49 0 9.53062 0C4.57119 0 0.551025 4.02016 0.551025 8.97959C0.551025 13.939 4.57119 17.9592 9.53062 17.9592C11.4424 17.9592 13.2114 17.3571 14.6674 16.3388L19.9088 21.5802L22.1308 19.3578ZM3.69388 8.97959C3.69388 5.76131 6.31188 3.14286 9.53061 3.14286C12.7489 3.14286 15.3673 5.76131 15.3673 8.97959C15.3673 12.1979 12.7489 14.8163 9.53061 14.8163C6.31188 14.8163 3.69388 12.1979 3.69388 8.97959Z" fill="#0094DF"/>
</svg>
